<?xml version="1.0" encoding="UTF-8" standalone="no"?>
<svg
   xmlns:dc="http://purl.org/dc/elements/1.1/"
   xmlns:cc="http://creativecommons.org/ns#"
   xmlns:rdf="http://www.w3.org/1999/02/22-rdf-syntax-ns#"
   xmlns:svg="http://www.w3.org/2000/svg"
   xmlns="http://www.w3.org/2000/svg"
   xmlns:sodipodi="http://sodipodi.sourceforge.net/DTD/sodipodi-0.dtd"
   xmlns:inkscape="http://www.inkscape.org/namespaces/inkscape"
   width="210mm"
   height="297mm"
   viewBox="0 0 210 297"
   version="1.1"
   id="svg95"
   inkscape:version="1.0.2-2 (e86c870879, 2021-01-15)"
   sodipodi:docname="desenhandologo2.svg">
  <defs
     id="defs89">
    <marker
       style="overflow:visible"
       id="Arrow2Lstart"
       refX="0.0"
       refY="0.0"
       orient="auto"
       inkscape:stockid="Arrow2Lstart"
       inkscape:isstock="true">
      <path
         transform="scale(1.1) translate(1,0)"
         d="M 8.7185878,4.0337352 L -2.2072895,0.016013256 L 8.7185884,-4.0017078 C 6.9730900,-1.6296469 6.9831476,1.6157441 8.7185878,4.0337352 z "
         style="fill-rule:evenodd;stroke-width:0.625;stroke-linejoin:round;stroke:#000000;stroke-opacity:0.84739;fill:#000000;fill-opacity:0.84739"
         id="path990" />
    </marker>
    <marker
       style="overflow:visible"
       id="Arrow2Sstart"
       refX="0.0"
       refY="0.0"
       orient="auto"
       inkscape:stockid="Arrow2Sstart"
       inkscape:isstock="true">
      <path
         transform="scale(0.3) translate(-2.3,0)"
         d="M 8.7185878,4.0337352 L -2.2072895,0.016013256 L 8.7185884,-4.0017078 C 6.9730900,-1.6296469 6.9831476,1.6157441 8.7185878,4.0337352 z "
         style="fill-rule:evenodd;stroke-width:0.625;stroke-linejoin:round;stroke:#000000;stroke-opacity:0.84739;fill:#000000;fill-opacity:0.84739"
         id="path1002" />
    </marker>
    <filter
       inkscape:collect="always"
       style="color-interpolation-filters:sRGB"
       id="filter1795"
       x="-0.1958349"
       width="1.3916698"
       y="-0.35250278"
       height="1.7050056">
      <feGaussianBlur
         inkscape:collect="always"
         stdDeviation="1.5500586"
         id="feGaussianBlur1797" />
    </filter>
  </defs>
  <sodipodi:namedview
     id="base"
     pagecolor="#ffffff"
     bordercolor="#666666"
     borderopacity="1.0"
     inkscape:pageopacity="0.0"
     inkscape:pageshadow="2"
     inkscape:zoom="0.45014485"
     inkscape:cx="226.13536"
     inkscape:cy="572.50231"
     inkscape:document-units="mm"
     inkscape:current-layer="layer1"
     inkscape:document-rotation="0"
     showgrid="false"
     showguides="false"
     inkscape:window-width="1280"
     inkscape:window-height="738"
     inkscape:window-x="-8"
     inkscape:window-y="-8"
     inkscape:window-maximized="1" />
  <metadata
     id="metadata92">
    <rdf:RDF>
      <cc:Work
         rdf:about="">
        <dc:format>image/svg+xml</dc:format>
        <dc:type
           rdf:resource="http://purl.org/dc/dcmitype/StillImage" />
        <dc:title></dc:title>
      </cc:Work>
    </rdf:RDF>
  </metadata>
  <g
     inkscape:label="Layer 1"
     inkscape:groupmode="layer"
     id="layer1">
    <g
       id="g1537"
       transform="matrix(0.3384182,0,0,0.42602411,65.241718,42.88387)">
      <g
         id="g1477">
        <g
           id="g1418">
          <rect
             style="fill:#54a1a7;fill-opacity:1;stroke:#000000;stroke-width:0.246076;stroke-linejoin:round;stroke-miterlimit:4.4;stroke-dasharray:none;stroke-opacity:0.84739"
             id="rect1360"
             width="335.98517"
             height="348.19247"
             x="-190.17046"
             y="-66.732613" />
          <path
             style="fill:#f8f8f8;fill-opacity:1;stroke:#000000;stroke-width:0.264583px;stroke-linecap:butt;stroke-linejoin:miter;stroke-opacity:1"
             d="m -73.132087,148.3963 c 0.189961,4.61133 -1.925669,9.04952 -2.345343,13.64564 -0.542901,5.94565 -0.398326,11.94238 -0.213212,17.9099 0.240849,7.76422 -0.261928,15.72966 1.721167,23.24022 1.144359,4.33402 5.756754,12.15315 5.756754,12.15315 l 33.261239,-0.85285 39.6421698,0.63963 49.0390082,-0.42642 22.600587,0.21321 8.102094,-3.83783 c 0,0 -4.867789,0.40955 -7.249245,0 -5.870657,-1.0096 -11.040396,-4.62682 -16.843832,-5.96997 -4.251407,-0.98394 -8.645467,-1.661 -13.005996,-1.49249 -2.047594,0.0791 -6.034987,1.17007 -6.034987,1.17007 l -6.173459,-0.85151 c 0,0 1.804504,-4.54574 1.761003,-6.92817 -0.07487,-4.10026 -2.181256,-7.90993 -3.464025,-11.80508 -1.601071,-4.86168 -3.01228,-9.83023 -5.27771,-14.42013 -3.987917,-8.07977 -14.498489,-22.81379 -14.498489,-22.81379 l -2.575985,-4.91591 -9.7923844,-23.62946 2.1287792,-17.45598 9.5999512,-7.08871 c 0,0 22.78958,-6.947265 32.408387,-13.645639 6.313133,-4.396359 12.18989,-10.038631 15.777768,-16.843832 3.530464,-6.696301 4.934431,-14.60424 4.903901,-22.17416 C 66.056352,32.37197 63.523152,22.411023 59.486447,13.432424 55.871653,5.3922564 50.450922,-1.9521779 44.135106,-8.1020969 38.11889,-13.960285 31.039276,-19.061601 23.240225,-22.17416 16.479601,-24.872289 8.9464517,-26.545455 1.7057046,-25.798782 c -7.9689309,0.821764 -15.4776806,4.687688 -22.3873726,8.741736 -4.04992,2.376165 -10.873868,8.9549491 -10.873868,8.9549491 0,0 -7.396877,-0.1799345 -11.087079,-0.4264261 -1.495912,-0.099921 -2.98656,-0.5842491 -4.477475,-0.4264263 -2.816424,0.2981364 -5.8789,0.8039843 -8.102097,2.5585571 -2.277143,1.7971471 -4.477475,7.4624576 -4.477475,7.4624576 0,0 -9.525571,0.056323 -14.285275,0.2132131 -6.970235,0.229754 -14.016314,-0.083822 -20.894883,1.0660653 -4.81438,0.8048178 -9.66002,1.9630219 -14.07206,4.0510484 -4.52609,2.1419981 -8.6714,5.1490438 -12.36636,8.5285228 -3.61254,3.304091 -6.96982,7.0398 -9.38138,11.300293 -2.85662,5.04677 -4.29254,10.806146 -5.75675,16.417407 -0.72869,2.792537 -1.34546,5.646227 -1.49249,8.528523 -0.2541,4.98117 -0.78558,10.293717 1.06607,14.924916 2.53034,6.328682 7.69787,11.502407 13.00599,15.777768 4.48062,3.608858 9.9199,5.991711 15.35134,7.888883 6.50033,2.270529 13.411856,3.291066 20.255246,4.051048 8.902757,0.988682 17.924677,0.08292 26.864847,0.639641 7.771038,0.483912 15.60324,0.828891 23.240227,2.345341 3.63897,0.722578 7.314873,1.595081 10.660652,3.198198 1.72412,0.826107 3.687083,1.644317 4.72655,3.248857 2.784794,4.29866 2.767413,15.11434 2.767413,15.11434 0,0 -21.059315,-1.77165 -31.58704,-1.30615 -1.646871,0.0728 -3.665159,1.7273 -4.903901,0.63964 -0.587465,-0.51582 0.340455,-1.64159 0,-2.34534 -0.947408,-1.95839 -3.045979,-3.38526 -5.117113,-4.05105 -2.844982,-0.91455 -6.564855,2.22024 -8.95495,0.42642 -1.461417,-1.09682 0.04376,-4.07003 -1.279279,-5.33032 -1.937802,-1.84591 -5.279925,-2.08898 -7.888882,-1.4925 -1.981554,0.45304 -4.268553,1.69379 -4.903902,3.62463 -0.604298,1.83647 2.171742,3.66721 1.705706,5.54354 -0.242281,0.97546 -1.132379,2.02863 -2.132132,2.13213 -2.196044,0.22735 -3.337081,-3.70106 -5.543539,-3.62462 -2.94061,0.10187 -5.921249,2.6073 -7.036033,5.33032 -1.11576,2.7254 -0.782357,6.63879 1.279279,8.74174 1.815845,1.85223 6.802326,-1.16312 7.675671,1.27928 0.763122,2.13415 -4.420206,2.85135 -4.477475,5.11711 -0.08694,3.4398 6.396392,8.1021 6.396392,8.1021 0,0 0.144044,-0.0163 0.213214,0 2.165357,0.51117 3.74673,2.8996 5.969966,2.98498 2.070532,0.0795 5.756754,-2.34534 5.756754,-2.34534 0,0 1.612048,4.33615 1.705702,6.6096 z"
             id="path960"
             sodipodi:nodetypes="aaaaccccccaaaccaaacccccaaaaaaaacaaacaaaaaaaaaaaaaaacaaaaaaaaaaaaaaacaaca" />
          <ellipse
             style="fill:#b07c4d;fill-opacity:1;stroke-width:0.264583"
             id="path942"
             cx="-47.911293"
             cy="1.2992893"
             rx="11.20637"
             ry="9.095026" />
          <ellipse
             style="fill:#010101;fill-opacity:1;fill-rule:evenodd;stroke-width:0.264583"
             id="path111"
             cx="-144.76488"
             cy="51.026779"
             rx="9.4494047"
             ry="12.473214" />
          <ellipse
             style="fill:#b07c4d;fill-opacity:1;stroke-width:0.272286"
             id="path936"
             cx="-24.954628"
             cy="-20.537195"
             rx="18.170307"
             ry="26.04719"
             transform="matrix(0.45558845,-0.89019052,0.86774145,0.49701587,0,0)"
             inkscape:transform-center-x="-3.713509"
             inkscape:transform-center-y="11.362505" />
          <ellipse
             style="fill:#b07c4d;fill-opacity:1;stroke-width:0.284621"
             id="path938"
             cx="36.332382"
             cy="44.979168"
             rx="15.656617"
             ry="19.144262" />
          <path
             style="fill:#b07c4d;fill-opacity:1;stroke:#000000;stroke-width:0.264583px;stroke-linecap:butt;stroke-linejoin:miter;stroke-opacity:1"
             d="M -5.8468021,18.190051 25.01132,34.431168 22.737564,41.577259 -7.7957362,24.686498 Z"
             id="path940" />
          <path
             style="fill:#bf1f1f;fill-opacity:1;stroke:#000000;stroke-width:0.264583px;stroke-linecap:butt;stroke-linejoin:miter;stroke-opacity:1"
             d="m -22.777938,103.24579 12.772675,1.27727 13.4113098,-2.55453 -2.3416572,6.38633 -15.3272106,2.55454 -6.17346,1.9159 z"
             id="path944" />
          <path
             style="fill:#bf1f1f;fill-opacity:1;stroke:#000000;stroke-width:0.264583px;stroke-linecap:butt;stroke-linejoin:miter;stroke-opacity:1"
             d="m 1.0643896,108.35486 v 5.10907 l -21.5006706,-0.63863 6.17346,-1.9159 z"
             id="path946" />
          <path
             style="fill:#bf1f1f;fill-opacity:1;stroke:#000000;stroke-width:0.264583px;stroke-linecap:butt;stroke-linejoin:miter;stroke-opacity:1"
             d="m -20.010525,118.36013 -0.425756,-5.53483 21.5006706,0.63863 0.212878,5.96058 z"
             id="path948" />
          <path
             style="fill:#bf1f1f;fill-opacity:1;stroke:#000000;stroke-width:0.264583px;stroke-linecap:butt;stroke-linejoin:miter;stroke-opacity:1"
             d="m 1.0643896,108.35486 v 5.10907 l 0.212878,5.96058 15.7529664,-0.42575 7.663605,1.70302 12.34692,7.23785 24.268083,21.92643 5.321948,7.02497 1.06439,-3.61892 -3.618924,-6.8121 1.490144,-1.70302 3.831805,6.17346 1.277265,-1.27727 -0.638633,-5.96058 -2.98029,-4.04468 0.638633,-3.40605 L 48.749045,120.4889 34.699101,115.59271 1.0643896,113.46393 v -5.10907 l 16.1787224,-3.8318 21.713547,-3.40604 14.688577,0.63863 18.520381,3.8318 14.262822,6.17346 9.153749,5.32195 4.896192,3.8318 2.55454,4.47044 v 2.98029 l -9.792389,-10.21814 -1.915901,3.8318 8.08936,7.66361 1.27727,4.25756 -4.683315,-7.02498 -4.257558,-2.98029 -1.277268,1.49015 4.683313,5.7477 2.341657,6.17346 -1.490144,1.70302 -4.470437,-6.81209 -3.406047,-2.34165 -1.06439,2.12877 4.04468,6.8121 0.638636,4.47043 c 0,0 0.638633,3.40605 -1.277268,2.34166 -1.915901,-1.06439 -1.915901,-1.06439 -1.915901,-1.06439 l -4.683315,-9.15375 -2.554537,3.61892 2.341658,4.47044 v 5.32195 l -1.277268,1.9159 c 0,0 -0.212876,-2.76741 -1.915901,-5.96058 -1.703022,-3.19317 -1.703022,-3.19317 -1.703022,-3.19317 l -3.406048,2.76741 2.12878,4.47044 v 4.25756 l -1.490147,-4.47044 -2.341655,-5.32195 c 0,0 -4.044683,-6.38633 -5.321948,-6.59921 -1.277268,-0.21288 -1.277268,-0.21288 -1.277268,-0.21288 L 48.536166,120.4889 34.699101,115.59271 1.0643896,113.46393 v 0 z"
             id="path950" />
          <path
             style="fill:#010101;fill-opacity:1;stroke:#000000;stroke-width:0.264583px;stroke-linecap:butt;stroke-linejoin:miter;stroke-opacity:1"
             d="m 33.421836,185.2038 c 0.349226,-0.17461 -2.809865,-9.27274 -4.896195,-13.62419 -4.819472,-10.05197 -17.455989,-28.52564 -17.455989,-28.52564 0,0 -1.1223245,3.50418 -1.2772674,5.32194 -0.3684117,4.32214 0.099304,8.71346 0.8515114,12.98556 0.704821,4.00297 1.611099,8.06154 3.406047,11.70828 1.592,3.23442 3.745793,6.27373 6.386338,8.728 1.47101,1.36724 3.186263,2.61349 5.10907,3.19317 2.514663,0.75811 7.876485,0.21288 7.876485,0.21288 z"
             id="path952"
             sodipodi:nodetypes="cacaaaaac" />
          <path
             style="fill:#010101;fill-opacity:1;stroke:#000000;stroke-width:0.264583px;stroke-linecap:butt;stroke-linejoin:miter;stroke-opacity:1"
             d="m 41.298317,204.78856 -2.128779,10.6439 -17.030234,-0.42576 8.727995,-5.32195 4.257559,-5.7477 z"
             id="path954" />
          <path
             style="fill:#71adae;fill-opacity:1;stroke:#000000;stroke-width:0.264583px;stroke-linecap:butt;stroke-linejoin:miter;stroke-opacity:1"
             d="m -58.967184,139.64792 0.425754,4.89619 c 0,0 -0.265593,1.38941 0.212879,1.70302 1.051636,0.68929 2.362337,-1.01914 3.618925,-1.06439 1.669103,-0.0601 3.422768,0.27793 4.896193,1.0644 2.346449,1.25246 4.024264,3.50893 5.747704,5.53482 1.453979,1.70914 3.831801,5.53483 3.831801,5.53483 l 9.579507,-14.26282 z"
             id="path956"
             sodipodi:nodetypes="ccaaaaccc" />
          <path
             style="fill:#f8f8f8;fill-opacity:1;stroke:#000000;stroke-width:0.264583px;stroke-linecap:butt;stroke-linejoin:miter;stroke-opacity:1"
             d="m -15.564555,40.93691 0.852853,13.005998 13.4324235,14.924915 -4.0510485,11.513508 -4.903901,5.330325 -8.954949,-13.005996 -11.513507,11.939932 5.969967,9.381376 -13.432423,2.771769 c 0,0 -4.690689,-0.213214 -6.396392,-0.852852 -1.705705,-0.639641 -2.132131,-3.624623 -2.132131,-3.624623 l -14.711704,2.132132 15.777768,1.492491 -1.279279,-4.051049 16.417409,-7.462459 6.183178,9.807802 14.285276,-8.741735 -8.102096,-12.366357 -1.279279,-1.492494 3.198196,-7.249244 1.705705,-10.873867 11.9399321,14.285277 1.7057046,0.639638 -0.6396392,-10.021014 -3.1981963,-7.675671 -5.3303272,-5.543539 z"
             id="path958" />
          <circle
             id="path962"
             style="fill:#f8f8f8;stroke:#000000;stroke-width:0.264583"
             cx="-65.179276"
             cy="170.79385"
             r="0.079759747" />
          <path
             style="fill:none;stroke:#000000;stroke-width:0.264583px;stroke-linecap:butt;stroke-linejoin:miter;stroke-opacity:1"
             d="m -55.523087,213.64319 -6.035119,-19.91589 -1.207025,-21.72643"
             id="path966" />
          <path
             style="fill:none;fill-opacity:0.473896;stroke:#000000;stroke-width:0.265;stroke-linecap:butt;stroke-linejoin:round;stroke-miterlimit:4.4;stroke-dasharray:none;stroke-opacity:0.84739;marker-start:url(#Arrow2Sstart);marker-end:url(#Arrow2Lstart)"
             d="m -55.523087,213.64319 c 0,0 -4.828288,-13.08494 -6.035119,-19.91589 -1.261907,-7.1427 -1.559177,-14.48167 -1.207024,-21.72643 0.449575,-9.24899 4.2238,-27.45676 4.2238,-27.45676 13.822597,9.64368 26.154471,18.24731 18.307502,12.77268 0,0 3.941561,12.04895 4.626729,18.30515 0.744954,6.80209 -0.603512,20.51941 -0.603512,20.51941 l 26.5545217,3.62106 -27.7615447,-5.4316 v 0 -22.32994 c 0,0 -3.811114,-9.8005 -2.816194,-14.68408 1.143279,-5.6118 9.579507,-14.26282 9.579507,-14.26282 l 14.963113,-0.0217 -43.275876,-3.38439 0.425754,4.89619 -14.590657,3.85219 -1.705702,-6.6096 v 0 c 0.01021,5.5e-4 17.145072,0.91859 -11.939934,-0.63964 v 0 c 0,0 -4.865027,-11.88058 4.700114,-11.99552 0,0 -5.529849,-4.22619 -5.431605,-7.24215 0.120768,-3.70743 3.577358,-7.87556 7.242141,-8.44916 3.0338,-0.47484 7.845655,4.82809 7.845655,4.82809 l 3.017557,-7.24214 10.863214,2.41405 -1.207023,9.05268 h 43.452851 -43.452851 l 0.603511,-8.44917"
             id="path970"
             sodipodi:nodetypes="caaccacccccaccccccccacaaccccccc" />
          <path
             style="fill:#608041;fill-opacity:1;stroke:#000000;stroke-width:0.264583px;stroke-linecap:butt;stroke-linejoin:miter;stroke-opacity:1"
             d="m -7.795736,24.686498 v 0 0 0 0 0 l -3.57649,6.19466 9.116529,8.432427 c 0,0 5.562034,7.933635 7.733819,12.245213 2.539529,5.041648 4.943329,10.269311 6.122608,15.789883 1.919601,8.986252 1.405268,27.531137 1.405268,27.531137 0,0 21.982437,-8.555773 32.752436,-13.352469 11.512856,-5.127546 20.54297,-24.691603 19.01231,-25.134913 2.74012,-0.391447 1.04221,-18.608716 -0.32225,-27.068369 C 62.843721,19.374429 56.442049,12.355072 53.450139,2.5358264 48.094439,-15.04122 22.991055,-22.226757 20.301277,-22.879217 c -2.872704,-0.696832 -18.4057785,-2.185467 -27.3274417,-0.343299 -5.4368803,1.122621 -10.5486183,3.77073 -15.2085673,6.788149 -3.498076,2.265081 -9.320804,8.3322701 -9.320804,8.3322701 l 8.676319,2.6239745 c 4.239176,1.2820516 7.626913,4.856109 10.31176,8.3783044 3.374996,4.427589 6.720655,15.289869 6.720655,15.289869 l 17.447532,8.556075 13.41059,7.685042 c 0,0 1.804863,-5.459408 3.990505,-7.040557 1.775044,-1.284112 4.301901,-1.744491 6.444848,-1.288969 3.090104,0.656858 5.794809,2.984043 7.733822,5.478122 1.836553,2.362289 2.676174,5.436377 3.222424,8.378306 0.78437,4.224363 1.552256,8.883331 -10e-7,12.889699 -1.785517,4.608411 -5.187389,9.787869 -9.989516,10.956244 -5.055798,1.230095 -10.634003,-3.544667 -10.634003,-3.544667 -1.176517,-1.186428 -4.064839,-6.586615 -4.511395,-10.31176 -0.33717,-2.812647 0.61065,-5.670894 1.46956,-8.370327 2.273756,-7.146091 -30.5333,-16.890761 -30.5333,-16.890761 z"
             id="path1310"
             sodipodi:nodetypes="ccccccccaacscsssaacsacccaaaaassasc" />
          <ellipse
             style="fill:#000000;fill-opacity:1;stroke:#000000;stroke-width:0.298895;stroke-linejoin:round;stroke-miterlimit:4.4;stroke-dasharray:none;stroke-opacity:0.84739"
             id="path1364"
             cx="-26.193956"
             cy="-18.094244"
             rx="13.051394"
             ry="19.273878"
             transform="matrix(0.54562907,-0.8380268,0.82948723,0.55852568,0,0)" />
        </g>
      </g>
    </g>
    <g
       id="g2081"
       transform="matrix(0.52756586,0,0,0.47547993,298.68374,267.02259)"
       inkscape:transform-center-x="11.027854"
       inkscape:transform-center-y="-47.262233">
      <rect
         style="fill:#000000;fill-opacity:1;stroke:#000000;stroke-width:0.117172;stroke-linejoin:round;stroke-miterlimit:4.4;stroke-dasharray:none;stroke-opacity:0.84739"
         id="rect1577"
         width="228.8913"
         height="265.89392"
         x="-413.93951"
         y="-216.08551" />
      <ellipse
         style="fill:#c5bdbb;fill-opacity:1;stroke:#000000;stroke-width:0.115027;stroke-linejoin:round;stroke-miterlimit:4;stroke-dasharray:none;stroke-opacity:0.84739"
         id="path1839"
         cx="-278.0932"
         cy="22.471849"
         rx="76.001373"
         ry="13.052028" />
      <path
         style="fill:#d2b018;fill-opacity:1;stroke:#000000;stroke-width:0.116988px;stroke-linecap:butt;stroke-linejoin:miter;stroke-opacity:1"
         d="m -357.67907,-184.41773 -2.29633,34.61085 c 0,0 -2.59683,0.29353 -3.44452,1.1853 -0.8987,0.94544 -1.87338,2.70022 -1.14816,3.79297 0.65038,0.97999 2.33761,0.56175 3.44451,0.23706 0.63339,-0.18579 0.98271,-0.97051 1.60743,-1.1853 3.19624,-1.09891 6.84294,-1.1101 10.1039,-0.23707 2.49069,0.66682 6.65939,4.03003 6.65939,4.03003 0,0 4.9629,-3.39846 7.80756,-4.03003 3.74468,-0.83137 7.83595,-0.73844 11.4817,0.47412 4.36473,1.45169 9.30857,3.65437 11.4817,7.823 1.37843,2.64418 1.00047,6.18875 0,9.00831 -0.8967,2.52712 -2.83866,4.74137 -5.05195,6.16357 -3.48318,2.2382 -7.83873,3.01003 -11.94097,3.08179 -3.28738,0.0575 -6.71816,-0.58649 -9.64463,-2.13355 -1.92945,-1.01999 -4.82231,-4.50415 -4.82231,-4.50415 l -15.84475,-0.94824 c 0,0 -4.54488,1.74359 -5.51121,3.79297 -0.43681,0.92637 0.22963,3.08179 0.22963,3.08179 l 5.28158,3.08179 8.49646,0.94824 -9.18536,-0.94824 c 0,0 -4.42904,-4.80958 -4.13342,-3.08179 0.75595,4.41821 -3.95293,11.56531 -2.7556,15.88305 0.56527,2.03845 3.52434,2.30743 5.51121,2.84472 6.07903,1.643911 18.83,0.94825 18.83,0.94825 l 17.91145,-0.47413 5.97048,-0.71118 c 0,0 3.21488,-2.13354 5.05195,-1.89648 l 1.83708,0.23706 -5.74086,1.42236 c 0,0 -15.38548,2.133551 -17.68182,2.133551 h -2.29633 c 0,0 0.85449,2.42911 1.83707,3.08179 2.07589,1.3789 10.10389,1.42236 7.34828,0.94824 -2.7556,-0.47412 1.83708,1.65943 1.83708,1.65943 0,0 -1.32628,4.028399 -0.22964,5.452389 2.08346,2.70537 9.87427,1.896485 9.87427,1.896485 0,0 3.44451,-0.711182 8.95572,-1.659424 5.51122,-0.948243 11.48171,-4.978273 11.48171,-4.978273 -0.82104,2.401488 -1.28686,-5.140247 -2.29634,-17.305418 -0.0889,-1.07087 -2.98525,-0.94824 -2.98525,-0.94824 0,0 4.39715,1.45186 6.42976,0.71118 1.42909,-0.52076 2.60177,-1.88807 3.21487,-3.31885 0.65103,-1.51928 0.8424,-3.44211 0.22964,-4.97827 -0.47447,-1.18945 -1.61116,-2.09889 -2.75561,-2.60767 -1.97351,-0.87733 -6.42976,-0.47412 -6.42976,-0.47412 0,0 3.60411,0.61738 3.90378,-0.71118 1.1539,-5.1157 1.43353,-10.07158 1.43353,-10.07158 l 1.32208,-9.13033 4.82232,-20.62426 3.21487,-13.98658 -5.28158,3.08179 -2.52598,-7.11182 -5.74084,4.97827 -2.06671,-7.34887 -5.51122,5.21533 -4.36304,-6.6377 -5.51122,5.68946 -2.98525,-7.11182 -5.74084,4.74121 -4.13342,-5.92651 -5.05195,5.68945 -5.28158,-5.68945 -2.98524,6.63769 -5.51122,-5.45239 -3.90377,5.45239 z"
         id="path1579"
         sodipodi:nodetypes="ccaaaaacaaaaaaaccaccccssacccsccscascacscscaaaacscccccccccccccccccccc" />
      <path
         style="fill:#000000;fill-opacity:0.967872;stroke:#000000;stroke-width:0.264583px;stroke-linecap:butt;stroke-linejoin:miter;stroke-opacity:1;filter:url(#filter1795)"
         d="m -179.93733,-79.678992 v 5.804429 l -4.2214,-6.332103 -8.97048,-0.527677 12.66421,-3.693727 6.3321,2.638375 z"
         id="path1581"
         transform="matrix(0.43518045,0,0,0.44925451,-218.75047,-80.822261)" />
      <path
         style="fill:#d7b418;fill-opacity:1;stroke:#000000;stroke-width:0.116988px;stroke-linecap:butt;stroke-linejoin:miter;stroke-opacity:1"
         d="m -332.49263,-21.589289 0.33752,27.5259177 c 5.73773,1.799821 11.47547,3.319047 17.2132,-0.348433 l -1.68757,-18.8151787 z"
         id="path1825"
         sodipodi:nodetypes="ccccc" />
      <path
         style="fill:#0088b4;fill-opacity:1;stroke:#000000;stroke-width:0.116988px;stroke-linecap:butt;stroke-linejoin:miter;stroke-opacity:1"
         d="m -343.9681,-36.223314 2.3626,6.271727 -2.3626,-6.271727 1.35006,10.452876 c 0,0 -1.29067,5.737479 0.33751,7.665445 5.71337,6.765324 17.23687,3.336353 25.65105,4.87801 v -5.226438 l -14.8506,-9.059159 z"
         id="path1817"
         sodipodi:nodetypes="ccccacccc" />
      <path
         style="fill:#0088b4;fill-opacity:1;stroke:#000000;stroke-width:0.116988px;stroke-linecap:butt;stroke-linejoin:miter;stroke-opacity:1"
         d="m -316.62948,-13.226983 17.55072,1.742146 c 0,0 15.93732,2.504334 20.58835,-2.787435 2.26923,-2.581843 0.33751,-10.452877 0.33751,-10.452877 6.79939,-1.166345 5.83753,-7.674188 7.76282,-12.195025 l -12.42829,3.035907 h -7.14752 l -0.20076,6.637695 -17.91146,-6.637695 v 0 l 0.33751,-9.059161 -7.87634,9.059161 2.10057,8.092952 2.71098,4.84742 -1.43381,-5.524119 -1.35611,-5.224762 -1.82114,-3.256314 h -13.70104 l -14.85061,-1.274224 c -2.0326,-0.03966 4.18123,9.657659 12.1505,12.891883 5.05409,2.051139 15.18812,4.87801 15.18812,4.87801 z"
         id="path1819"
         sodipodi:nodetypes="cccccccccccccccccccscc" />
      <path
         style="fill:#d7b418;fill-opacity:1;stroke:#000000;stroke-width:0.116988px;stroke-linecap:butt;stroke-linejoin:miter;stroke-opacity:1"
         d="m -307.85412,-12.181693 -0.33751,22.29947 c 5.51273,4.950731 11.02545,0.950529 16.53817,-1.3937173 -0.22501,-7.0847304 -0.45001,-44.6968657 -0.67502,-21.2541857 -4.22759,0.323315 -2.46454,1.956315 -15.52564,0.348433 z"
         id="path1823"
         sodipodi:nodetypes="ccccc" />
      <path
         style="fill:#da4523;fill-opacity:0.97992;stroke:#000000;stroke-width:0.116988px;stroke-linecap:butt;stroke-linejoin:miter;stroke-opacity:1"
         d="m -326.44883,-87.697018 -2.06671,1.896485 c 0,0 -3.50749,8.428701 -4.82232,12.801271 -1.18894,3.95396 -1.00071,8.367426 -2.75561,12.090089 -0.21447,0.454961 -0.91853,1.185303 -0.91853,1.185303 0,0 -5.38376,5.739595 -7.11865,9.245362 -1.80814,3.653777 -2.06242,8.948396 -3.21488,11.853027 -1.02769,2.590154 10.4615,2.576061 15.84475,3.792973 7.10383,1.605856 21.81523,0.237058 21.81523,0.237058 l 26.86718,0.711183 c 0,-0.286889 8.65808,0.559444 11.4817,0 2.83074,-0.560853 1.11342,-6.234323 0.45927,-9.245363 -0.77941,-3.587653 0.91854,-2.133544 -5.05194,-9.719484 -5.97049,-7.585937 -4.77965,-4.189874 -5.74086,-7.111817 -0.61584,-1.872077 0.22964,-5.926513 0.22964,-5.926513 0,0 1.46554,0.271624 1.83707,-0.237062 2.09869,-2.873401 -1.60744,-10.667725 -1.60744,-10.667725 0,0 -3.02761,-5.338954 -5.05195,-7.585938 -1.66895,-1.852515 -5.74085,-4.741212 -5.74085,-4.741212 0,0 0.89529,-1.847461 0.45927,-2.607666 -0.86328,-1.50513 -4.82231,-1.659425 -4.82231,-1.659425 v 0 l -10.7928,4.978273 c 0,0 -6.38742,1.541355 -9.64463,1.659424 -3.22743,0.116989 -9.64463,-0.948243 -9.64463,-0.948243 z"
         id="path1799"
         sodipodi:nodetypes="ccaacassccsasacacacacccac" />
      <path
         style="fill:#da4523;fill-opacity:1;stroke:#000000;stroke-width:0.116988px;stroke-linecap:butt;stroke-linejoin:miter;stroke-opacity:1"
         d="m -339.07871,-71.813959 c -0.43756,-1.689856 0.70731,-3.496327 1.60745,-4.978272 2.21422,-3.645406 8.95572,-9.008302 8.95572,-9.008302 l -4.82232,12.801271 v 0 0 c 0,0 0.0295,4.526557 -1.60743,4.978272 -1.78091,0.491452 -3.65737,-1.954459 -4.13342,-3.792969 z"
         id="path1805"
         sodipodi:nodetypes="aacccaaa" />
      <path
         style="fill:#da4523;fill-opacity:1;stroke:#000000;stroke-width:0.116988px;stroke-linecap:butt;stroke-linejoin:miter;stroke-opacity:1"
         d="m -309.45591,-67.78393 c 0.0579,1.753514 3.66765,1.729109 5.05194,0.711183 0.6358,-0.46753 -0.31833,-2.299957 0.45927,-2.370607 10.24151,-0.930505 18.55646,0.297025 19.51889,0.474122 0.9532,0.175397 0.13308,2.260288 0.91854,2.844726 0.93145,0.693058 2.63264,0.838136 3.44451,0 1.73201,-1.788022 0.45774,-5.101837 0,-7.585938 -0.58437,-3.171373 -1.60334,-6.398924 -3.44451,-9.008302 -1.63304,-2.314415 -3.81847,-4.487165 -6.42975,-5.452393 -2.08987,-0.772494 -4.50637,-0.557849 -6.65939,0 -2.35828,0.611033 -4.62233,1.876956 -6.42975,3.555909 -1.72024,1.597959 -3.10773,3.683337 -3.90378,5.926514 -1.18806,3.347822 -2.64424,7.32348 -2.52597,10.904786 z"
         id="path1809"
         sodipodi:nodetypes="sassaaaaaaass" />
      <path
         style="fill:#d7b418;fill-opacity:1;stroke:#000000;stroke-width:0.117173;stroke-linecap:butt;stroke-linejoin:round;stroke-miterlimit:4;stroke-dasharray:none;stroke-opacity:1"
         d="m -303.71506,-69.206293 -4.36305,35.322026 17.91146,6.637695 6.20011,-41.72266 z"
         id="path1811" />
      <path
         style="fill:#d7b418;fill-opacity:1;stroke:#000000;stroke-width:0.116988px;stroke-linecap:butt;stroke-linejoin:miter;stroke-opacity:1"
         d="m -339.07871,-71.813959 -0.1546,13.621362 3.24752,-2.514407 1.78613,-9.051866 z"
         id="path1815" />
      <path
         style="fill:#e7e7e7;fill-opacity:1;stroke:#000000;stroke-width:0.116988px;stroke-linecap:butt;stroke-linejoin:miter;stroke-opacity:1"
         d="m -314.94191,5.5881957 v 0 0 l -8.06398,2.230616 -11.61837,-3.2138141 -3.15614,1.8811271 2.5465,2.628858 -1.17043,1.5362713 9.78212,1.649393 h 7.96765 c 0,0 5.73019,-1.790873 5.36505,-3.1976863 -0.36515,-1.406814 -1.6524,-3.514765 -1.6524,-3.514765 z"
         id="path1845"
         sodipodi:nodetypes="ccccccccccsc" />
      <path
         style="fill:#d7b418;fill-opacity:1;stroke:#000000;stroke-width:0.116988px;stroke-linecap:butt;stroke-linejoin:miter;stroke-opacity:1"
         d="m -332.49263,-13.923844 0.33752,19.8604727 17.2132,-0.348433 -1.68757,-18.8151787 z"
         id="path1821" />
      <path
         style="fill:#e7e7e7;fill-opacity:1;stroke:#000000;stroke-width:0.116988px;stroke-linecap:butt;stroke-linejoin:miter;stroke-opacity:1"
         d="m -353.756,23.706523 12.82553,3.135859 15.52563,-0.348428 0.33751,-2.787431 -18.90077,-1.04529 -8.10033,-2.439007 z"
         id="path1829" />
      <path
         style="fill:#0a8ec5;fill-opacity:1;stroke:#000000;stroke-width:0.116988px;stroke-linecap:butt;stroke-linejoin:miter;stroke-opacity:1"
         d="m -352.06843,20.222226 c 0,0 5.3802,-5.831674 8.77536,-7.665441 2.10638,-1.137679 6.88874,-1.905531 6.88874,-1.905531 l 7.96187,1.557098 h 7.76282 l 6.57384,-1.818421 3.21406,3.318931 -4.05017,1.286926 -8.43785,8.710735 h -20.92585 z"
         id="path1837"
         sodipodi:nodetypes="caccccccccc" />
      <ellipse
         style="fill:#e7e7e7;fill-opacity:1;stroke:#000000;stroke-width:0.0888192;stroke-linejoin:round;stroke-miterlimit:4;stroke-dasharray:none;stroke-opacity:0.84739"
         id="path1835"
         cx="-320.67966"
         cy="16.912153"
         rx="4.4016337"
         ry="3.6729124" />
      <path
         style="fill:#098fc6;fill-opacity:0.891566;stroke:#000000;stroke-width:0.116988px;stroke-linecap:butt;stroke-linejoin:miter;stroke-opacity:1"
         d="m -282.20307,24.054951 -5.84147,-10.444952 c 0,0 -1.46386,0.524936 -9.45542,0.524936 -7.99156,0 -9.09802,-0.426073 -9.09802,-0.426073 h -4.29376 c 0,0 -5.91709,2.831207 -8.36882,4.988001 -2.47024,2.173067 -6.14428,7.797091 -6.14428,7.797091 l 5.98411,2.160182 h 12.91667 c 10.58851,3.195349 20.93934,5.939023 24.30099,-4.599185 z"
         id="path1833"
         sodipodi:nodetypes="ccsccacccc" />
      <path
         style="fill:#e7e7e7;fill-opacity:1;stroke:#000000;stroke-width:0.116988px;stroke-linecap:butt;stroke-linejoin:miter;stroke-opacity:1"
         d="m -325.40484,26.493954 v 0 0 l 8.10033,1.742146 14.5131,0.348428 17.2132,-2.439003 3.37514,-2.090574 0.33752,5.574867 -8.43785,1.742146 -13.16304,1.393717 -8.43784,-0.348428 h -11.47548 l -2.57494,-4.60418 z"
         id="path1831" />
      <path
         style="fill:#e7e7e7;fill-opacity:1;stroke:#000000;stroke-width:0.116988px;stroke-linecap:butt;stroke-linejoin:miter;stroke-opacity:1"
         d="m -310.89174,13.708862 2.70011,-3.591085 v 0 l 6.57384,1.818421 9.8442,-2.7230533 3.19833,3.3017603 v 0.738737 h -11.85355 z"
         id="path1843" />
      <ellipse
         style="fill:#e8e7e6;fill-opacity:1;stroke:#000000;stroke-width:0.12488;stroke-linejoin:round;stroke-miterlimit:4;stroke-dasharray:none;stroke-opacity:0.84739"
         id="path1855"
         cx="-354.59979"
         cy="-134.65457"
         rx="14.003032"
         ry="12.365323" />
      <ellipse
         style="fill:#e7e7e7;fill-opacity:1;stroke:#000000;stroke-width:0.119521;stroke-linejoin:round;stroke-miterlimit:4;stroke-dasharray:none;stroke-opacity:0.84739"
         id="path1847"
         cx="-328.50986"
         cy="-133.17989"
         rx="17.279453"
         ry="13.332372" />
      <ellipse
         style="fill:#000000;fill-opacity:1;stroke:#000000;stroke-width:0.117172;stroke-linejoin:round;stroke-miterlimit:4;stroke-dasharray:none;stroke-opacity:0.84739"
         id="path1849"
         cx="-325.06732"
         cy="-133.08664"
         rx="2.3625968"
         ry="2.0905757" />
      <ellipse
         style="fill:#000000;fill-opacity:1;stroke:#000000;stroke-width:0.117172;stroke-linejoin:round;stroke-miterlimit:4;stroke-dasharray:none;stroke-opacity:0.84739"
         id="path1849-7"
         cx="-355.10608"
         cy="-133.78349"
         rx="2.3625968"
         ry="2.0905757" />
    </g>
  </g>
</svg>
